<?xml version="1.0" encoding="UTF-8" standalone="no"?>
<!DOCTYPE svg PUBLIC "-//W3C//DTD SVG 1.1//EN"
 "http://www.w3.org/Graphics/SVG/1.1/DTD/svg11.dtd">
<!-- Generated by graphviz version 9.0.0 (0)
 -->
<!-- Pages: 1 -->
<svg width="1340pt" height="1015pt"
 viewBox="0.00 0.00 1340.08 1015.00" xmlns="http://www.w3.org/2000/svg" xmlns:xlink="http://www.w3.org/1999/xlink">
<g id="graph0" class="graph" transform="scale(1 1) rotate(0) translate(4 1011)">
<polygon fill="white" stroke="none" points="-4,4 -4,-1011 1336.08,-1011 1336.08,4 -4,4"/>
<!-- IO::Buffer::MaskError -->
<g id="node1" class="node">
<title>IO::Buffer::MaskError</title>
<polygon fill="#ecfccb" stroke="#ecfccb" points="1309.41,-528.85 1169.66,-528.85 1169.66,-492.85 1309.41,-492.85 1309.41,-528.85"/>
<text text-anchor="middle" x="1239.54" y="-505.8" font-family="Times,serif" font-size="14.00">IO::Buffer::MaskError</text>
</g>
<!-- ArgumentError -->
<g id="node2" class="node">
<title>ArgumentError</title>
<polygon fill="#d9f99d" stroke="#d9f99d" points="1118.11,-574.14 1018.11,-574.14 1018.11,-538.14 1118.11,-538.14 1118.11,-574.14"/>
<text text-anchor="middle" x="1068.11" y="-551.09" font-family="Times,serif" font-size="14.00">ArgumentError</text>
</g>
<!-- ArgumentError&#45;&gt;IO::Buffer::MaskError -->
<g id="edge1" class="edge">
<title>ArgumentError&#45;&gt;IO::Buffer::MaskError</title>
<path fill="none" stroke="black" d="M1118.15,-542.92C1130.86,-539.56 1144.85,-535.86 1158.66,-532.21"/>
<polygon fill="black" stroke="black" points="1159.44,-535.63 1168.22,-529.69 1157.66,-528.86 1159.44,-535.63"/>
</g>
<!-- UncaughtThrowError -->
<g id="node21" class="node">
<title>UncaughtThrowError</title>
<polygon fill="#ecfccb" stroke="#ecfccb" points="1293.66,-607.35 1160.66,-607.35 1160.66,-571.35 1293.66,-571.35 1293.66,-607.35"/>
<text text-anchor="middle" x="1227.16" y="-584.3" font-family="Times,serif" font-size="14.00">UncaughtThrowError</text>
</g>
<!-- ArgumentError&#45;&gt;UncaughtThrowError -->
<g id="edge16" class="edge">
<title>ArgumentError&#45;&gt;UncaughtThrowError</title>
<path fill="none" stroke="black" d="M1118.43,-566.65C1128.19,-568.69 1138.63,-570.87 1149.04,-573.04"/>
<polygon fill="black" stroke="black" points="1148.3,-576.46 1158.8,-575.08 1149.73,-569.61 1148.3,-576.46"/>
</g>
<!-- Gem::Requirement::BadRequirementError -->
<g id="node55" class="node">
<title>Gem::Requirement::BadRequirementError</title>
<polygon fill="#ecfccb" stroke="#ecfccb" points="1332.08,-681.11 1082.83,-681.11 1082.83,-645.11 1332.08,-645.11 1332.08,-681.11"/>
<text text-anchor="middle" x="1207.45" y="-658.06" font-family="Times,serif" font-size="14.00">Gem::Requirement::BadRequirementError</text>
</g>
<!-- ArgumentError&#45;&gt;Gem::Requirement::BadRequirementError -->
<g id="edge54" class="edge">
<title>ArgumentError&#45;&gt;Gem::Requirement::BadRequirementError</title>
<path fill="none" stroke="black" d="M1092.06,-574.53C1114.93,-592.08 1149.57,-618.67 1174.93,-638.14"/>
<polygon fill="black" stroke="black" points="1172.55,-640.73 1182.61,-644.04 1176.81,-635.17 1172.55,-640.73"/>
</g>
<!-- IO::Buffer::InvalidatedError -->
<g id="node3" class="node">
<title>IO::Buffer::InvalidatedError</title>
<polygon fill="#ecfccb" stroke="#ecfccb" points="1264.32,-749.18 1094.57,-749.18 1094.57,-713.18 1264.32,-713.18 1264.32,-749.18"/>
<text text-anchor="middle" x="1179.44" y="-726.13" font-family="Times,serif" font-size="14.00">IO::Buffer::InvalidatedError</text>
</g>
<!-- RuntimeError -->
<g id="node4" class="node">
<title>RuntimeError</title>
<polygon fill="#d9f99d" stroke="#d9f99d" points="978.28,-774.16 886.53,-774.16 886.53,-738.16 978.28,-738.16 978.28,-774.16"/>
<text text-anchor="middle" x="932.41" y="-751.11" font-family="Times,serif" font-size="14.00">RuntimeError</text>
</g>
<!-- RuntimeError&#45;&gt;IO::Buffer::InvalidatedError -->
<g id="edge2" class="edge">
<title>RuntimeError&#45;&gt;IO::Buffer::InvalidatedError</title>
<path fill="none" stroke="black" d="M978.58,-751.49C1008.01,-748.51 1047.23,-744.55 1083.2,-740.91"/>
<polygon fill="black" stroke="black" points="1083.15,-744.43 1092.74,-739.95 1082.44,-737.47 1083.15,-744.43"/>
</g>
<!-- IO::Buffer::AccessError -->
<g id="node5" class="node">
<title>IO::Buffer::AccessError</title>
<polygon fill="#ecfccb" stroke="#ecfccb" points="1219.03,-810.63 1071.78,-810.63 1071.78,-774.63 1219.03,-774.63 1219.03,-810.63"/>
<text text-anchor="middle" x="1145.41" y="-787.58" font-family="Times,serif" font-size="14.00">IO::Buffer::AccessError</text>
</g>
<!-- RuntimeError&#45;&gt;IO::Buffer::AccessError -->
<g id="edge3" class="edge">
<title>RuntimeError&#45;&gt;IO::Buffer::AccessError</title>
<path fill="none" stroke="black" d="M978.62,-764.07C1002.6,-768.18 1032.66,-773.32 1060.63,-778.11"/>
<polygon fill="black" stroke="black" points="1059.71,-781.51 1070.15,-779.74 1060.89,-774.61 1059.71,-781.51"/>
</g>
<!-- IO::Buffer::AllocationError -->
<g id="node6" class="node">
<title>IO::Buffer::AllocationError</title>
<polygon fill="#ecfccb" stroke="#ecfccb" points="1189.65,-864.37 1023.65,-864.37 1023.65,-828.37 1189.65,-828.37 1189.65,-864.37"/>
<text text-anchor="middle" x="1106.65" y="-841.32" font-family="Times,serif" font-size="14.00">IO::Buffer::AllocationError</text>
</g>
<!-- RuntimeError&#45;&gt;IO::Buffer::AllocationError -->
<g id="edge4" class="edge">
<title>RuntimeError&#45;&gt;IO::Buffer::AllocationError</title>
<path fill="none" stroke="black" d="M968.09,-774.63C994.98,-788.56 1032.07,-807.76 1061.11,-822.79"/>
<polygon fill="black" stroke="black" points="1059.18,-825.73 1069.67,-827.22 1062.4,-819.52 1059.18,-825.73"/>
</g>
<!-- IO::Buffer::LockedError -->
<g id="node7" class="node">
<title>IO::Buffer::LockedError</title>
<polygon fill="#ecfccb" stroke="#ecfccb" points="1138.98,-909.13 989.48,-909.13 989.48,-873.13 1138.98,-873.13 1138.98,-909.13"/>
<text text-anchor="middle" x="1064.23" y="-886.08" font-family="Times,serif" font-size="14.00">IO::Buffer::LockedError</text>
</g>
<!-- RuntimeError&#45;&gt;IO::Buffer::LockedError -->
<g id="edge5" class="edge">
<title>RuntimeError&#45;&gt;IO::Buffer::LockedError</title>
<path fill="none" stroke="black" d="M950.46,-774.64C973.24,-797.96 1012.56,-838.23 1038.48,-864.77"/>
<polygon fill="black" stroke="black" points="1035.84,-867.07 1045.34,-871.78 1040.85,-862.18 1035.84,-867.07"/>
</g>
<!-- FrozenError -->
<g id="node29" class="node">
<title>FrozenError</title>
<polygon fill="#ecfccb" stroke="#ecfccb" points="1013.36,-953.17 931.36,-953.17 931.36,-917.17 1013.36,-917.17 1013.36,-953.17"/>
<text text-anchor="middle" x="972.36" y="-930.12" font-family="Times,serif" font-size="14.00">FrozenError</text>
</g>
<!-- RuntimeError&#45;&gt;FrozenError -->
<g id="edge24" class="edge">
<title>RuntimeError&#45;&gt;FrozenError</title>
<path fill="none" stroke="black" d="M936.53,-774.64C943.46,-805.67 957.48,-868.5 965.78,-905.69"/>
<polygon fill="black" stroke="black" points="962.33,-906.31 967.92,-915.31 969.16,-904.79 962.33,-906.31"/>
</g>
<!-- Gem::Exception -->
<g id="node44" class="node">
<title>Gem::Exception</title>
<polygon fill="#ecfccb" stroke="#ecfccb" points="923.22,-987.73 817.97,-987.73 817.97,-951.73 923.22,-951.73 923.22,-987.73"/>
<text text-anchor="middle" x="870.6" y="-964.68" font-family="Times,serif" font-size="14.00">Gem::Exception</text>
</g>
<!-- RuntimeError&#45;&gt;Gem::Exception -->
<g id="edge43" class="edge">
<title>RuntimeError&#45;&gt;Gem::Exception</title>
<path fill="none" stroke="black" d="M927.14,-774.37C916.44,-811.31 892.12,-895.38 879.13,-940.24"/>
<polygon fill="black" stroke="black" points="875.78,-939.23 876.36,-949.81 882.51,-941.18 875.78,-939.23"/>
</g>
<!-- Ractor::Error -->
<g id="node50" class="node">
<title>Ractor::Error</title>
<polygon fill="#ecfccb" stroke="#ecfccb" points="809.77,-1007 721.77,-1007 721.77,-971 809.77,-971 809.77,-1007"/>
<text text-anchor="middle" x="765.77" y="-983.95" font-family="Times,serif" font-size="14.00">Ractor::Error</text>
</g>
<!-- RuntimeError&#45;&gt;Ractor::Error -->
<g id="edge48" class="edge">
<title>RuntimeError&#45;&gt;Ractor::Error</title>
<path fill="none" stroke="black" d="M919.33,-774.43C890.19,-815.15 819.77,-913.54 785.36,-961.63"/>
<polygon fill="black" stroke="black" points="782.64,-959.41 779.67,-969.58 788.33,-963.49 782.64,-959.41"/>
</g>
<!-- IO::TimeoutError -->
<g id="node8" class="node">
<title>IO::TimeoutError</title>
<polygon fill="#ecfccb" stroke="#ecfccb" points="713.71,-1006.49 600.96,-1006.49 600.96,-970.49 713.71,-970.49 713.71,-1006.49"/>
<text text-anchor="middle" x="657.33" y="-983.44" font-family="Times,serif" font-size="14.00">IO::TimeoutError</text>
</g>
<!-- IOError -->
<g id="node9" class="node">
<title>IOError</title>
<polygon fill="#d9f99d" stroke="#d9f99d" points="665.92,-821.7 607.17,-821.7 607.17,-785.7 665.92,-785.7 665.92,-821.7"/>
<text text-anchor="middle" x="636.55" y="-798.65" font-family="Times,serif" font-size="14.00">IOError</text>
</g>
<!-- IOError&#45;&gt;IO::TimeoutError -->
<g id="edge6" class="edge">
<title>IOError&#45;&gt;IO::TimeoutError</title>
<path fill="none" stroke="black" d="M638.62,-822.1C642.22,-854.13 649.67,-920.4 654.01,-958.94"/>
<polygon fill="black" stroke="black" points="650.51,-959.12 655.1,-968.67 657.46,-958.34 650.51,-959.12"/>
</g>
<!-- EOFError -->
<g id="node10" class="node">
<title>EOFError</title>
<polygon fill="#ecfccb" stroke="#ecfccb" points="592.89,-989.46 522.89,-989.46 522.89,-953.46 592.89,-953.46 592.89,-989.46"/>
<text text-anchor="middle" x="557.89" y="-966.41" font-family="Times,serif" font-size="14.00">EOFError</text>
</g>
<!-- IOError&#45;&gt;EOFError -->
<g id="edge7" class="edge">
<title>IOError&#45;&gt;EOFError</title>
<path fill="none" stroke="black" d="M627.98,-821.97C614.33,-851.09 587.53,-908.26 571.31,-942.84"/>
<polygon fill="black" stroke="black" points="568.17,-941.3 567.09,-951.84 574.5,-944.27 568.17,-941.3"/>
</g>
<!-- StandardError -->
<g id="node11" class="node">
<title>StandardError</title>
<polygon fill="#bef264" stroke="#bef264" points="612.54,-598.96 520.04,-598.96 520.04,-562.96 612.54,-562.96 612.54,-598.96"/>
<text text-anchor="middle" x="566.29" y="-575.91" font-family="Times,serif" font-size="14.00">StandardError</text>
</g>
<!-- StandardError&#45;&gt;ArgumentError -->
<g id="edge35" class="edge">
<title>StandardError&#45;&gt;ArgumentError</title>
<path fill="none" stroke="black" d="M612.6,-578.67C703.37,-574.18 904.66,-564.22 1006.52,-559.18"/>
<polygon fill="black" stroke="black" points="1006.51,-562.69 1016.33,-558.7 1006.17,-555.7 1006.51,-562.69"/>
</g>
<!-- StandardError&#45;&gt;RuntimeError -->
<g id="edge25" class="edge">
<title>StandardError&#45;&gt;RuntimeError</title>
<path fill="none" stroke="black" d="M604.78,-599.38C671.94,-631.51 810.36,-697.76 883.95,-732.97"/>
<polygon fill="black" stroke="black" points="881.99,-735.91 892.52,-737.07 885.01,-729.6 881.99,-735.91"/>
</g>
<!-- StandardError&#45;&gt;IOError -->
<g id="edge8" class="edge">
<title>StandardError&#45;&gt;IOError</title>
<path fill="none" stroke="black" d="M572.04,-599.19C584.19,-637.69 612.55,-727.6 627.29,-774.33"/>
<polygon fill="black" stroke="black" points="623.92,-775.29 630.27,-783.78 630.59,-773.19 623.92,-775.29"/>
</g>
<!-- EncodingError -->
<g id="node13" class="node">
<title>EncodingError</title>
<polygon fill="#d9f99d" stroke="#d9f99d" points="502.51,-749.45 406.26,-749.45 406.26,-713.45 502.51,-713.45 502.51,-749.45"/>
<text text-anchor="middle" x="454.38" y="-726.4" font-family="Times,serif" font-size="14.00">EncodingError</text>
</g>
<!-- StandardError&#45;&gt;EncodingError -->
<g id="edge21" class="edge">
<title>StandardError&#45;&gt;EncodingError</title>
<path fill="none" stroke="black" d="M552.57,-599.41C533.08,-625.61 497.26,-673.79 474.69,-704.14"/>
<polygon fill="black" stroke="black" points="471.93,-701.99 468.77,-712.1 477.55,-706.16 471.93,-701.99"/>
</g>
<!-- RegexpError -->
<g id="node17" class="node">
<title>RegexpError</title>
<polygon fill="#d9f99d" stroke="#d9f99d" points="434.15,-653.97 348.4,-653.97 348.4,-617.97 434.15,-617.97 434.15,-653.97"/>
<text text-anchor="middle" x="391.27" y="-630.92" font-family="Times,serif" font-size="14.00">RegexpError</text>
</g>
<!-- StandardError&#45;&gt;RegexpError -->
<g id="edge13" class="edge">
<title>StandardError&#45;&gt;RegexpError</title>
<path fill="none" stroke="black" d="M519.85,-595.56C497.03,-602.73 469.4,-611.42 445.6,-618.9"/>
<polygon fill="black" stroke="black" points="444.55,-615.56 436.06,-621.89 446.65,-622.23 444.55,-615.56"/>
</g>
<!-- RangeError -->
<g id="node19" class="node">
<title>RangeError</title>
<polygon fill="#d9f99d" stroke="#d9f99d" points="412.27,-607.97 333.27,-607.97 333.27,-571.97 412.27,-571.97 412.27,-607.97"/>
<text text-anchor="middle" x="372.77" y="-584.92" font-family="Times,serif" font-size="14.00">RangeError</text>
</g>
<!-- StandardError&#45;&gt;RangeError -->
<g id="edge32" class="edge">
<title>StandardError&#45;&gt;RangeError</title>
<path fill="none" stroke="black" d="M519.94,-583.12C491.02,-584.46 453.76,-586.2 423.97,-587.59"/>
<polygon fill="black" stroke="black" points="423.87,-584.09 414.05,-588.05 424.2,-591.08 423.87,-584.09"/>
</g>
<!-- ZeroDivisionError -->
<g id="node20" class="node">
<title>ZeroDivisionError</title>
<polygon fill="#d9f99d" stroke="#d9f99d" points="416.4,-559.07 299.9,-559.07 299.9,-523.07 416.4,-523.07 416.4,-559.07"/>
<text text-anchor="middle" x="358.15" y="-536.02" font-family="Times,serif" font-size="14.00">ZeroDivisionError</text>
</g>
<!-- StandardError&#45;&gt;ZeroDivisionError -->
<g id="edge15" class="edge">
<title>StandardError&#45;&gt;ZeroDivisionError</title>
<path fill="none" stroke="black" d="M519.58,-572.01C492.47,-566.81 457.8,-560.17 427.54,-554.37"/>
<polygon fill="black" stroke="black" points="428.58,-551 418.1,-552.56 427.27,-557.88 428.58,-551"/>
</g>
<!-- SystemCallError -->
<g id="node22" class="node">
<title>SystemCallError</title>
<polygon fill="#d9f99d" stroke="#d9f99d" points="400.61,-508.2 293.11,-508.2 293.11,-472.2 400.61,-472.2 400.61,-508.2"/>
<text text-anchor="middle" x="346.86" y="-485.15" font-family="Times,serif" font-size="14.00">SystemCallError</text>
</g>
<!-- StandardError&#45;&gt;SystemCallError -->
<g id="edge17" class="edge">
<title>StandardError&#45;&gt;SystemCallError</title>
<path fill="none" stroke="black" d="M521.62,-562.48C487.06,-548.19 439.03,-528.32 402.06,-513.03"/>
<polygon fill="black" stroke="black" points="403.44,-509.81 392.86,-509.22 400.77,-516.28 403.44,-509.81"/>
</g>
<!-- NoMatchingPatternError -->
<g id="node24" class="node">
<title>NoMatchingPatternError</title>
<polygon fill="#d9f99d" stroke="#d9f99d" points="414.82,-456.65 263.07,-456.65 263.07,-420.65 414.82,-420.65 414.82,-456.65"/>
<text text-anchor="middle" x="338.94" y="-433.6" font-family="Times,serif" font-size="14.00">NoMatchingPatternError</text>
</g>
<!-- StandardError&#45;&gt;NoMatchingPatternError -->
<g id="edge19" class="edge">
<title>StandardError&#45;&gt;NoMatchingPatternError</title>
<path fill="none" stroke="black" d="M537.04,-562.64C496.56,-537.31 423.38,-491.5 378.19,-463.22"/>
<polygon fill="black" stroke="black" points="380.06,-460.26 369.73,-457.92 376.35,-466.19 380.06,-460.26"/>
</g>
<!-- NameError -->
<g id="node31" class="node">
<title>NameError</title>
<polygon fill="#d9f99d" stroke="#d9f99d" points="374.14,-405.05 296.64,-405.05 296.64,-369.05 374.14,-369.05 374.14,-405.05"/>
<text text-anchor="middle" x="335.39" y="-382" font-family="Times,serif" font-size="14.00">NameError</text>
</g>
<!-- StandardError&#45;&gt;NameError -->
<g id="edge27" class="edge">
<title>StandardError&#45;&gt;NameError</title>
<path fill="none" stroke="black" d="M544.57,-562.71C503.22,-528 413.14,-452.34 365.81,-412.6"/>
<polygon fill="black" stroke="black" points="368.29,-410.11 358.38,-406.36 363.79,-415.47 368.29,-410.11"/>
</g>
<!-- IndexError -->
<g id="node37" class="node">
<title>IndexError</title>
<polygon fill="#d9f99d" stroke="#d9f99d" points="365.84,-311.31 290.59,-311.31 290.59,-275.31 365.84,-275.31 365.84,-311.31"/>
<text text-anchor="middle" x="328.21" y="-288.26" font-family="Times,serif" font-size="14.00">IndexError</text>
</g>
<!-- StandardError&#45;&gt;IndexError -->
<g id="edge34" class="edge">
<title>StandardError&#45;&gt;IndexError</title>
<path fill="none" stroke="black" d="M551.04,-562.53C510.22,-513.21 398.36,-378.06 350.46,-320.19"/>
<polygon fill="black" stroke="black" points="353.38,-318.23 344.3,-312.76 347.98,-322.69 353.38,-318.23"/>
</g>
<!-- TypeError -->
<g id="node38" class="node">
<title>TypeError</title>
<polygon fill="#d9f99d" stroke="#d9f99d" points="381.13,-242.25 308.88,-242.25 308.88,-206.25 381.13,-206.25 381.13,-242.25"/>
<text text-anchor="middle" x="345.01" y="-219.2" font-family="Times,serif" font-size="14.00">TypeError</text>
</g>
<!-- StandardError&#45;&gt;TypeError -->
<g id="edge36" class="edge">
<title>StandardError&#45;&gt;TypeError</title>
<path fill="none" stroke="black" d="M555.01,-562.78C518.83,-504.45 405.52,-321.79 362.14,-251.86"/>
<polygon fill="black" stroke="black" points="365.3,-250.33 357.06,-243.67 359.36,-254.02 365.3,-250.33"/>
</g>
<!-- FiberError -->
<g id="node45" class="node">
<title>FiberError</title>
<polygon fill="#d9f99d" stroke="#d9f99d" points="416.19,-198.2 343.19,-198.2 343.19,-162.2 416.19,-162.2 416.19,-198.2"/>
<text text-anchor="middle" x="379.69" y="-175.15" font-family="Times,serif" font-size="14.00">FiberError</text>
</g>
<!-- StandardError&#45;&gt;FiberError -->
<g id="edge44" class="edge">
<title>StandardError&#45;&gt;FiberError</title>
<path fill="none" stroke="black" d="M557.79,-562.7C528.1,-498.93 428.89,-285.88 392.89,-208.55"/>
<polygon fill="black" stroke="black" points="396.27,-207.53 388.88,-199.94 389.93,-210.48 396.27,-207.53"/>
</g>
<!-- ThreadError -->
<g id="node48" class="node">
<title>ThreadError</title>
<polygon fill="#d9f99d" stroke="#d9f99d" points="510.23,-155.59 427.48,-155.59 427.48,-119.59 510.23,-119.59 510.23,-155.59"/>
<text text-anchor="middle" x="468.85" y="-132.54" font-family="Times,serif" font-size="14.00">ThreadError</text>
</g>
<!-- StandardError&#45;&gt;ThreadError -->
<g id="edge46" class="edge">
<title>StandardError&#45;&gt;ThreadError</title>
<path fill="none" stroke="black" d="M562.23,-562.47C547.07,-493.51 493.77,-250.95 475.25,-166.69"/>
<polygon fill="black" stroke="black" points="478.71,-166.16 473.15,-157.15 471.88,-167.66 478.71,-166.16"/>
</g>
<!-- Math::DomainError -->
<g id="node51" class="node">
<title>Math::DomainError</title>
<polygon fill="#d9f99d" stroke="#d9f99d" points="643.78,-117.22 518.28,-117.22 518.28,-81.22 643.78,-81.22 643.78,-117.22"/>
<text text-anchor="middle" x="581.03" y="-94.17" font-family="Times,serif" font-size="14.00">Math::DomainError</text>
</g>
<!-- StandardError&#45;&gt;Math::DomainError -->
<g id="edge50" class="edge">
<title>StandardError&#45;&gt;Math::DomainError</title>
<path fill="none" stroke="black" d="M566.85,-562.66C569.08,-489.7 577.36,-219.16 580.13,-128.81"/>
<polygon fill="black" stroke="black" points="583.62,-129.15 580.42,-119.04 576.62,-128.93 583.62,-129.15"/>
</g>
<!-- LocalJumpError -->
<g id="node53" class="node">
<title>LocalJumpError</title>
<polygon fill="#d9f99d" stroke="#d9f99d" points="757.16,-97.63 651.91,-97.63 651.91,-61.63 757.16,-61.63 757.16,-97.63"/>
<text text-anchor="middle" x="704.53" y="-74.58" font-family="Times,serif" font-size="14.00">LocalJumpError</text>
</g>
<!-- StandardError&#45;&gt;LocalJumpError -->
<g id="edge52" class="edge">
<title>StandardError&#45;&gt;LocalJumpError</title>
<path fill="none" stroke="black" d="M571.38,-562.52C592.17,-487.13 670.82,-201.89 696.42,-109.04"/>
<polygon fill="black" stroke="black" points="699.79,-110 699.07,-99.43 693.04,-108.14 699.79,-110"/>
</g>
<!-- Encoding::ConverterNotFoundError -->
<g id="node12" class="node">
<title>Encoding::ConverterNotFoundError</title>
<polygon fill="#ecfccb" stroke="#ecfccb" points="525.11,-945.24 312.61,-945.24 312.61,-909.24 525.11,-909.24 525.11,-945.24"/>
<text text-anchor="middle" x="418.86" y="-922.19" font-family="Times,serif" font-size="14.00">Encoding::ConverterNotFoundError</text>
</g>
<!-- EncodingError&#45;&gt;Encoding::ConverterNotFoundError -->
<g id="edge9" class="edge">
<title>EncodingError&#45;&gt;Encoding::ConverterNotFoundError</title>
<path fill="none" stroke="black" d="M451.04,-749.87C444.86,-783.92 431.61,-856.96 424.18,-897.9"/>
<polygon fill="black" stroke="black" points="420.78,-897.06 422.44,-907.53 427.66,-898.31 420.78,-897.06"/>
</g>
<!-- Encoding::InvalidByteSequenceError -->
<g id="node14" class="node">
<title>Encoding::InvalidByteSequenceError</title>
<polygon fill="#ecfccb" stroke="#ecfccb" points="436.11,-901.24 216.86,-901.24 216.86,-865.24 436.11,-865.24 436.11,-901.24"/>
<text text-anchor="middle" x="326.48" y="-878.19" font-family="Times,serif" font-size="14.00">Encoding::InvalidByteSequenceError</text>
</g>
<!-- EncodingError&#45;&gt;Encoding::InvalidByteSequenceError -->
<g id="edge10" class="edge">
<title>EncodingError&#45;&gt;Encoding::InvalidByteSequenceError</title>
<path fill="none" stroke="black" d="M438.96,-749.76C416.58,-776.31 374.98,-825.68 349.13,-856.37"/>
<polygon fill="black" stroke="black" points="346.71,-853.81 342.94,-863.71 352.06,-858.32 346.71,-853.81"/>
</g>
<!-- Encoding::UndefinedConversionError -->
<g id="node15" class="node">
<title>Encoding::UndefinedConversionError</title>
<polygon fill="#ecfccb" stroke="#ecfccb" points="401.95,-855.87 178.95,-855.87 178.95,-819.87 401.95,-819.87 401.95,-855.87"/>
<text text-anchor="middle" x="290.45" y="-832.82" font-family="Times,serif" font-size="14.00">Encoding::UndefinedConversionError</text>
</g>
<!-- EncodingError&#45;&gt;Encoding::UndefinedConversionError -->
<g id="edge11" class="edge">
<title>EncodingError&#45;&gt;Encoding::UndefinedConversionError</title>
<path fill="none" stroke="black" d="M426.2,-749.74C399.11,-767.33 357.98,-794.03 328.09,-813.43"/>
<polygon fill="black" stroke="black" points="326.57,-810.25 320.08,-818.63 330.38,-816.12 326.57,-810.25"/>
</g>
<!-- Encoding::CompatibilityError -->
<g id="node25" class="node">
<title>Encoding::CompatibilityError</title>
<polygon fill="#ecfccb" stroke="#ecfccb" points="348.55,-801.83 169.05,-801.83 169.05,-765.83 348.55,-765.83 348.55,-801.83"/>
<text text-anchor="middle" x="258.8" y="-778.78" font-family="Times,serif" font-size="14.00">Encoding::CompatibilityError</text>
</g>
<!-- EncodingError&#45;&gt;Encoding::CompatibilityError -->
<g id="edge20" class="edge">
<title>EncodingError&#45;&gt;Encoding::CompatibilityError</title>
<path fill="none" stroke="black" d="M405.79,-744.46C385.56,-749.88 361.54,-756.31 338.85,-762.39"/>
<polygon fill="black" stroke="black" points="338.05,-758.98 329.29,-764.95 339.86,-765.74 338.05,-758.98"/>
</g>
<!-- Regexp::TimeoutError -->
<g id="node16" class="node">
<title>Regexp::TimeoutError</title>
<polygon fill="#ecfccb" stroke="#ecfccb" points="296.81,-738.59 157.06,-738.59 157.06,-702.59 296.81,-702.59 296.81,-738.59"/>
<text text-anchor="middle" x="226.94" y="-715.54" font-family="Times,serif" font-size="14.00">Regexp::TimeoutError</text>
</g>
<!-- RegexpError&#45;&gt;Regexp::TimeoutError -->
<g id="edge12" class="edge">
<title>RegexpError&#45;&gt;Regexp::TimeoutError</title>
<path fill="none" stroke="black" d="M355.61,-654.33C331.36,-666.82 299.05,-683.46 272.88,-696.93"/>
<polygon fill="black" stroke="black" points="271.45,-693.74 264.16,-701.42 274.65,-699.96 271.45,-693.74"/>
</g>
<!-- FloatDomainError -->
<g id="node18" class="node">
<title>FloatDomainError</title>
<polygon fill="#ecfccb" stroke="#ecfccb" points="257.5,-670.6 141,-670.6 141,-634.6 257.5,-634.6 257.5,-670.6"/>
<text text-anchor="middle" x="199.25" y="-647.55" font-family="Times,serif" font-size="14.00">FloatDomainError</text>
</g>
<!-- RangeError&#45;&gt;FloatDomainError -->
<g id="edge14" class="edge">
<title>RangeError&#45;&gt;FloatDomainError</title>
<path fill="none" stroke="black" d="M332.96,-604.34C311.7,-612.01 285.06,-621.63 261.17,-630.25"/>
<polygon fill="black" stroke="black" points="260.05,-626.93 251.83,-633.62 262.43,-633.52 260.05,-626.93"/>
</g>
<!-- NoMatchingPatternKeyError -->
<g id="node23" class="node">
<title>NoMatchingPatternKeyError</title>
<polygon fill="#ecfccb" stroke="#ecfccb" points="245.94,-446.06 71.69,-446.06 71.69,-410.06 245.94,-410.06 245.94,-446.06"/>
<text text-anchor="middle" x="158.82" y="-423.01" font-family="Times,serif" font-size="14.00">NoMatchingPatternKeyError</text>
</g>
<!-- NoMatchingPatternError&#45;&gt;NoMatchingPatternKeyError -->
<g id="edge18" class="edge">
<title>NoMatchingPatternError&#45;&gt;NoMatchingPatternKeyError</title>
<path fill="none" stroke="black" d="M262.81,-434.17C261.1,-434.07 259.39,-433.97 257.67,-433.87"/>
<polygon fill="black" stroke="black" points="257.97,-430.38 247.78,-433.29 257.56,-437.37 257.97,-430.38"/>
</g>
<!-- NoMemoryError -->
<g id="node26" class="node">
<title>NoMemoryError</title>
<polygon fill="#bef264" stroke="#bef264" points="641.34,-240.79 532.34,-240.79 532.34,-204.79 641.34,-204.79 641.34,-240.79"/>
<text text-anchor="middle" x="586.84" y="-217.74" font-family="Times,serif" font-size="14.00">NoMemoryError</text>
</g>
<!-- Exception -->
<g id="node27" class="node">
<title>Exception</title>
<polygon fill="#a3e635" stroke="#a3e635" points="731.65,-474.15 660.9,-474.15 660.9,-438.15 731.65,-438.15 731.65,-474.15"/>
<text text-anchor="middle" x="696.28" y="-451.1" font-family="Times,serif" font-size="14.00">Exception</text>
</g>
<!-- Exception&#45;&gt;StandardError -->
<g id="edge37" class="edge">
<title>Exception&#45;&gt;StandardError</title>
<path fill="none" stroke="black" d="M677.1,-474.57C655.02,-495.77 618.59,-530.75 593.56,-554.77"/>
<polygon fill="black" stroke="black" points="591.43,-551.97 586.64,-561.42 596.28,-557.02 591.43,-551.97"/>
</g>
<!-- Exception&#45;&gt;NoMemoryError -->
<g id="edge22" class="edge">
<title>Exception&#45;&gt;NoMemoryError</title>
<path fill="none" stroke="black" d="M687.69,-437.84C668.67,-397.29 622.88,-299.65 600.13,-251.14"/>
<polygon fill="black" stroke="black" points="603.45,-249.96 596.03,-242.39 597.11,-252.93 603.45,-249.96"/>
</g>
<!-- SecurityError -->
<g id="node28" class="node">
<title>SecurityError</title>
<polygon fill="#bef264" stroke="#bef264" points="738.93,-259.62 649.43,-259.62 649.43,-223.62 738.93,-223.62 738.93,-259.62"/>
<text text-anchor="middle" x="694.18" y="-236.57" font-family="Times,serif" font-size="14.00">SecurityError</text>
</g>
<!-- Exception&#45;&gt;SecurityError -->
<g id="edge23" class="edge">
<title>Exception&#45;&gt;SecurityError</title>
<path fill="none" stroke="black" d="M696.1,-437.86C695.74,-400.73 694.91,-316.24 694.47,-271.19"/>
<polygon fill="black" stroke="black" points="697.97,-271.34 694.38,-261.38 690.97,-271.41 697.97,-271.34"/>
</g>
<!-- ScriptError -->
<g id="node33" class="node">
<title>ScriptError</title>
<polygon fill="#bef264" stroke="#bef264" points="823.71,-300.35 746.96,-300.35 746.96,-264.35 823.71,-264.35 823.71,-300.35"/>
<text text-anchor="middle" x="785.33" y="-277.3" font-family="Times,serif" font-size="14.00">ScriptError</text>
</g>
<!-- Exception&#45;&gt;ScriptError -->
<g id="edge31" class="edge">
<title>Exception&#45;&gt;ScriptError</title>
<path fill="none" stroke="black" d="M705.64,-437.88C721.21,-407.5 752.52,-346.39 770.92,-310.48"/>
<polygon fill="black" stroke="black" points="773.83,-312.48 775.27,-301.99 767.6,-309.29 773.83,-312.48"/>
</g>
<!-- SignalException -->
<g id="node40" class="node">
<title>SignalException</title>
<polygon fill="#bef264" stroke="#bef264" points="890.35,-344.37 785.1,-344.37 785.1,-308.37 890.35,-308.37 890.35,-344.37"/>
<text text-anchor="middle" x="837.73" y="-321.32" font-family="Times,serif" font-size="14.00">SignalException</text>
</g>
<!-- Exception&#45;&gt;SignalException -->
<g id="edge39" class="edge">
<title>Exception&#45;&gt;SignalException</title>
<path fill="none" stroke="black" d="M716.24,-437.83C740.57,-415.51 781.83,-377.66 809.42,-352.34"/>
<polygon fill="black" stroke="black" points="811.75,-354.96 816.75,-345.62 807.01,-349.8 811.75,-354.96"/>
</g>
<!-- fatal -->
<g id="node41" class="node">
<title>fatal</title>
<polygon fill="#bef264" stroke="#bef264" points="895.33,-388.4 841.33,-388.4 841.33,-352.4 895.33,-352.4 895.33,-388.4"/>
<text text-anchor="middle" x="868.33" y="-365.35" font-family="Times,serif" font-size="14.00">fatal</text>
</g>
<!-- Exception&#45;&gt;fatal -->
<g id="edge40" class="edge">
<title>Exception&#45;&gt;fatal</title>
<path fill="none" stroke="black" d="M731.93,-438.38C760.77,-424.01 801.27,-403.82 830.64,-389.18"/>
<polygon fill="black" stroke="black" points="832.17,-392.33 839.56,-384.73 829.05,-386.06 832.17,-392.33"/>
</g>
<!-- SystemExit -->
<g id="node42" class="node">
<title>SystemExit</title>
<polygon fill="#bef264" stroke="#bef264" points="930.59,-432.52 851.59,-432.52 851.59,-396.52 930.59,-396.52 930.59,-432.52"/>
<text text-anchor="middle" x="891.09" y="-409.47" font-family="Times,serif" font-size="14.00">SystemExit</text>
</g>
<!-- Exception&#45;&gt;SystemExit -->
<g id="edge41" class="edge">
<title>Exception&#45;&gt;SystemExit</title>
<path fill="none" stroke="black" d="M732.01,-448.52C762.31,-442.04 806.13,-432.68 840.11,-425.42"/>
<polygon fill="black" stroke="black" points="840.7,-428.87 849.74,-423.36 839.23,-422.02 840.7,-428.87"/>
</g>
<!-- SystemStackError -->
<g id="node52" class="node">
<title>SystemStackError</title>
<polygon fill="#bef264" stroke="#bef264" points="963.7,-477.13 848.7,-477.13 848.7,-441.13 963.7,-441.13 963.7,-477.13"/>
<text text-anchor="middle" x="906.2" y="-454.08" font-family="Times,serif" font-size="14.00">SystemStackError</text>
</g>
<!-- Exception&#45;&gt;SystemStackError -->
<g id="edge51" class="edge">
<title>Exception&#45;&gt;SystemStackError</title>
<path fill="none" stroke="black" d="M731.89,-456.66C760.7,-457.07 802.14,-457.65 837.39,-458.15"/>
<polygon fill="black" stroke="black" points="837.03,-461.65 847.08,-458.29 837.13,-454.65 837.03,-461.65"/>
</g>
<!-- ErrorHighlight::Spotter::NonAscii -->
<g id="node56" class="node">
<title>ErrorHighlight::Spotter::NonAscii</title>
<polygon fill="#bef264" stroke="#bef264" points="1017.42,-521.15 815.42,-521.15 815.42,-485.15 1017.42,-485.15 1017.42,-521.15"/>
<text text-anchor="middle" x="916.42" y="-498.1" font-family="Times,serif" font-size="14.00">ErrorHighlight::Spotter::NonAscii</text>
</g>
<!-- Exception&#45;&gt;ErrorHighlight::Spotter::NonAscii -->
<g id="edge55" class="edge">
<title>Exception&#45;&gt;ErrorHighlight::Spotter::NonAscii</title>
<path fill="none" stroke="black" d="M732.14,-463.81C755.9,-468.88 788.29,-475.8 819.29,-482.42"/>
<polygon fill="black" stroke="black" points="818.19,-485.76 828.7,-484.43 819.66,-478.91 818.19,-485.76"/>
</g>
<!-- NoMethodError -->
<g id="node30" class="node">
<title>NoMethodError</title>
<polygon fill="#ecfccb" stroke="#ecfccb" points="215.03,-368.16 111.28,-368.16 111.28,-332.16 215.03,-332.16 215.03,-368.16"/>
<text text-anchor="middle" x="163.16" y="-345.11" font-family="Times,serif" font-size="14.00">NoMethodError</text>
</g>
<!-- NameError&#45;&gt;NoMethodError -->
<g id="edge26" class="edge">
<title>NameError&#45;&gt;NoMethodError</title>
<path fill="none" stroke="black" d="M296.3,-378.68C275.75,-374.28 250.04,-368.77 226.7,-363.77"/>
<polygon fill="black" stroke="black" points="227.46,-360.35 216.95,-361.68 226,-367.2 227.46,-360.35"/>
</g>
<!-- NotImplementedError -->
<g id="node32" class="node">
<title>NotImplementedError</title>
<polygon fill="#d9f99d" stroke="#d9f99d" points="906.19,-138.52 768.69,-138.52 768.69,-102.52 906.19,-102.52 906.19,-138.52"/>
<text text-anchor="middle" x="837.44" y="-115.47" font-family="Times,serif" font-size="14.00">NotImplementedError</text>
</g>
<!-- ScriptError&#45;&gt;NotImplementedError -->
<g id="edge28" class="edge">
<title>ScriptError&#45;&gt;NotImplementedError</title>
<path fill="none" stroke="black" d="M791.21,-264.1C800.16,-236.3 817.3,-183.06 828.01,-149.81"/>
<polygon fill="black" stroke="black" points="831.31,-150.98 831.04,-140.39 824.64,-148.84 831.31,-150.98"/>
</g>
<!-- LoadError -->
<g id="node34" class="node">
<title>LoadError</title>
<polygon fill="#d9f99d" stroke="#d9f99d" points="960.08,-182.55 887.83,-182.55 887.83,-146.55 960.08,-146.55 960.08,-182.55"/>
<text text-anchor="middle" x="923.95" y="-159.5" font-family="Times,serif" font-size="14.00">LoadError</text>
</g>
<!-- ScriptError&#45;&gt;LoadError -->
<g id="edge29" class="edge">
<title>ScriptError&#45;&gt;LoadError</title>
<path fill="none" stroke="black" d="M806.99,-263.94C830.29,-244.15 867.5,-212.52 893.68,-190.27"/>
<polygon fill="black" stroke="black" points="895.94,-192.95 901.29,-183.81 891.41,-187.61 895.94,-192.95"/>
</g>
<!-- SyntaxError -->
<g id="node35" class="node">
<title>SyntaxError</title>
<polygon fill="#d9f99d" stroke="#d9f99d" points="1025.23,-226.55 943.23,-226.55 943.23,-190.55 1025.23,-190.55 1025.23,-226.55"/>
<text text-anchor="middle" x="984.23" y="-203.5" font-family="Times,serif" font-size="14.00">SyntaxError</text>
</g>
<!-- ScriptError&#45;&gt;SyntaxError -->
<g id="edge30" class="edge">
<title>ScriptError&#45;&gt;SyntaxError</title>
<path fill="none" stroke="black" d="M824.16,-267.95C854.96,-256.52 898.32,-240.43 932.15,-227.88"/>
<polygon fill="black" stroke="black" points="933.19,-231.23 941.35,-224.47 930.76,-224.66 933.19,-231.23"/>
</g>
<!-- Gem::LoadError -->
<g id="node54" class="node">
<title>Gem::LoadError</title>
<polygon fill="#ecfccb" stroke="#ecfccb" points="1061.22,-36 954.47,-36 954.47,0 1061.22,0 1061.22,-36"/>
<text text-anchor="middle" x="1007.85" y="-12.95" font-family="Times,serif" font-size="14.00">Gem::LoadError</text>
</g>
<!-- LoadError&#45;&gt;Gem::LoadError -->
<g id="edge53" class="edge">
<title>LoadError&#45;&gt;Gem::LoadError</title>
<path fill="none" stroke="black" d="M934.41,-146.28C948.79,-121.16 974.81,-75.71 991.7,-46.21"/>
<polygon fill="black" stroke="black" points="994.58,-48.23 996.51,-37.81 988.5,-44.75 994.58,-48.23"/>
</g>
<!-- KeyError -->
<g id="node36" class="node">
<title>KeyError</title>
<polygon fill="#ecfccb" stroke="#ecfccb" points="209.01,-292.18 142.01,-292.18 142.01,-256.18 209.01,-256.18 209.01,-292.18"/>
<text text-anchor="middle" x="175.51" y="-269.13" font-family="Times,serif" font-size="14.00">KeyError</text>
</g>
<!-- IndexError&#45;&gt;KeyError -->
<g id="edge33" class="edge">
<title>IndexError&#45;&gt;KeyError</title>
<path fill="none" stroke="black" d="M290.46,-288.58C269.33,-285.94 242.84,-282.62 220.62,-279.83"/>
<polygon fill="black" stroke="black" points="221.3,-276.39 210.94,-278.62 220.43,-283.34 221.3,-276.39"/>
</g>
<!-- StopIteration -->
<g id="node47" class="node">
<title>StopIteration</title>
<polygon fill="#ecfccb" stroke="#ecfccb" points="251.91,-188.84 165.41,-188.84 165.41,-152.84 251.91,-152.84 251.91,-188.84"/>
<text text-anchor="middle" x="208.66" y="-165.79" font-family="Times,serif" font-size="14.00">StopIteration</text>
</g>
<!-- IndexError&#45;&gt;StopIteration -->
<g id="edge49" class="edge">
<title>IndexError&#45;&gt;StopIteration</title>
<path fill="none" stroke="black" d="M310.31,-274.98C290.24,-254.41 257.51,-220.88 234.62,-197.43"/>
<polygon fill="black" stroke="black" points="237.23,-195.09 227.74,-190.38 232.22,-199.98 237.23,-195.09"/>
</g>
<!-- Interrupt -->
<g id="node39" class="node">
<title>Interrupt</title>
<polygon fill="#d9f99d" stroke="#d9f99d" points="1061.93,-270.91 998.68,-270.91 998.68,-234.91 1061.93,-234.91 1061.93,-270.91"/>
<text text-anchor="middle" x="1030.3" y="-247.86" font-family="Times,serif" font-size="14.00">Interrupt</text>
</g>
<!-- SignalException&#45;&gt;Interrupt -->
<g id="edge38" class="edge">
<title>SignalException&#45;&gt;Interrupt</title>
<path fill="none" stroke="black" d="M885.83,-308.03C917.08,-296.1 957.46,-280.7 987.58,-269.21"/>
<polygon fill="black" stroke="black" points="988.67,-272.54 996.77,-265.7 986.18,-266 988.67,-272.54"/>
</g>
<!-- Gem::SystemExitException -->
<g id="node43" class="node">
<title>Gem::SystemExitException</title>
<polygon fill="#d9f99d" stroke="#d9f99d" points="1145.78,-366.92 977.53,-366.92 977.53,-330.92 1145.78,-330.92 1145.78,-366.92"/>
<text text-anchor="middle" x="1061.65" y="-343.87" font-family="Times,serif" font-size="14.00">Gem::SystemExitException</text>
</g>
<!-- SystemExit&#45;&gt;Gem::SystemExitException -->
<g id="edge42" class="edge">
<title>SystemExit&#45;&gt;Gem::SystemExitException</title>
<path fill="none" stroke="black" d="M931.08,-399.14C952.51,-390.9 979.32,-380.59 1003.06,-371.46"/>
<polygon fill="black" stroke="black" points="1004.23,-374.76 1012.31,-367.9 1001.72,-368.22 1004.23,-374.76"/>
</g>
<!-- ClosedQueueError -->
<g id="node46" class="node">
<title>ClosedQueueError</title>
<polygon fill="#f7fee7" stroke="#f7fee7" points="117.25,-130.05 0,-130.05 0,-94.05 117.25,-94.05 117.25,-130.05"/>
<text text-anchor="middle" x="58.62" y="-107" font-family="Times,serif" font-size="14.00">ClosedQueueError</text>
</g>
<!-- StopIteration&#45;&gt;ClosedQueueError -->
<g id="edge45" class="edge">
<title>StopIteration&#45;&gt;ClosedQueueError</title>
<path fill="none" stroke="black" d="M165.26,-153.83C149.93,-147.82 132.44,-140.97 116.12,-134.58"/>
<polygon fill="black" stroke="black" points="117.59,-131.4 107,-131.01 115.04,-137.91 117.59,-131.4"/>
</g>
<!-- Ractor::ClosedError -->
<g id="node49" class="node">
<title>Ractor::ClosedError</title>
<polygon fill="#f7fee7" stroke="#f7fee7" points="179.03,-40.95 53.53,-40.95 53.53,-4.95 179.03,-4.95 179.03,-40.95"/>
<text text-anchor="middle" x="116.28" y="-17.9" font-family="Times,serif" font-size="14.00">Ractor::ClosedError</text>
</g>
<!-- StopIteration&#45;&gt;Ractor::ClosedError -->
<g id="edge47" class="edge">
<title>StopIteration&#45;&gt;Ractor::ClosedError</title>
<path fill="none" stroke="black" d="M197.15,-152.41C181.15,-126.81 152.09,-80.29 133.51,-50.54"/>
<polygon fill="black" stroke="black" points="136.72,-49.06 128.45,-42.44 130.78,-52.77 136.72,-49.06"/>
</g>
</g>
</svg>
